<?xml version="1.0" encoding="UTF-8" standalone="no"?>
<!DOCTYPE svg PUBLIC "-//W3C//DTD SVG 1.1//EN" "http://www.w3.org/Graphics/SVG/1.1/DTD/svg11.dtd">
<svg width="100%" height="100%" viewBox="0 0 479 559" version="1.1" xmlns="http://www.w3.org/2000/svg" xmlns:xlink="http://www.w3.org/1999/xlink" xml:space="preserve" xmlns:serif="http://www.serif.com/" style="fill-rule:evenodd;clip-rule:evenodd;stroke-linejoin:round;stroke-miterlimit:2;">
    <g transform="matrix(1,0,0,1,-238.990948,-186.323172)">
        <g transform="matrix(1,0,0,1,-21.924535,-11.051153)">
            <g id="_2A0F8AE1-8E45-4EAB-953E-E11A5488B8F0.png" serif:id="2A0F8AE1-8E45-4EAB-953E-E11A5488B8F0.png" transform="matrix(1.41468,-0.013585,0.013585,1.41468,-232.665024,-234.127615)">
                <path d="M443.504,704.072C440.081,703.605 417.435,700.516 403.73,687.254C370.542,655.138 387.199,618.149 406.791,570.616C421.666,534.527 422.326,531.231 427.465,531.89C434.258,532.76 482.992,581.404 490.393,589.597C495.152,594.865 531.136,634.701 499.945,677.827C478.48,707.505 446.039,704.069 443.504,704.072Z" style="fill:url(#_Linear1);"/>
                <path d="M619.497,665.056C614.271,664.83 580.071,663.355 562.935,632.261C547.615,604.462 565.246,572.171 567.731,567.62C585.042,535.914 597.042,527.448 595.069,503.522C594.041,491.045 623.271,509.858 630.231,523.642C645.237,553.355 620.061,574.941 638.499,580.503C646.259,582.845 652.985,573.575 653.754,562.52C653.777,562.186 652.649,550.676 661.152,556.955C695.52,582.332 688.449,661.501 619.497,665.056Z" style="fill:url(#_Linear2);"/>
                <g>
                    <path d="M572.446,343.083C572.195,343.264 571.768,342.929 571.517,343.11C569.71,344.411 571.007,345.034 579.096,381.578C579.379,382.857 579.567,384.156 579.845,385.436C583.182,400.787 584.376,405.684 584.804,407.437C587.706,419.339 586.56,419.615 587.147,420.5C587.455,420.963 588.182,421.028 588.489,421.491C590.235,437.784 603.814,462.549 564.512,467.62C545.392,470.087 540.714,449.088 540.154,446.574C534.738,422.262 534.924,422.253 533.485,418.521C533.654,417.949 534.627,418.189 534.059,416.574C534.028,416.486 533.868,416.031 533.749,415.462C533.548,414.502 533.424,413.527 533.221,412.567C525.002,373.694 525.291,373.416 522.904,370.952C523.536,369.231 523.445,368.722 517.229,342.574C511.088,316.745 529.645,312.517 543.503,310.526C562.586,307.783 567.155,328 567.708,330.446C570.173,341.351 569.516,342.183 572.446,343.083Z" style="fill:url(#_Linear3);"/>
                    <path d="M372.254,390.244C373.188,381.492 354.897,351.38 395.438,345.207C423.542,340.928 420.811,379.043 426.711,393.209C426.848,394.351 426.693,394.3 426.976,395.413C427.741,398.436 434.537,435.336 437.902,440.903C436.722,458.107 463.66,493.519 419.446,501.205C388.912,506.514 393.024,468.803 388.548,468.017C388.179,467.953 387.799,468.194 387.43,468.13C389.516,466.862 389.609,466.961 389.679,466.762C389.683,466.754 373.42,393.977 373.394,392.51C373.356,390.35 372.489,390.711 372.254,390.244Z" style="fill:url(#_Linear4);"/>
                    <path d="M522.904,370.952C525.291,373.416 525.002,373.694 533.221,412.567C533.424,413.527 533.548,414.502 533.749,415.462C533.868,416.031 534.028,416.486 534.059,416.574C534.627,418.189 533.654,417.949 533.485,418.521C526.47,418.997 439.329,440.203 437.902,440.903C434.537,435.336 427.741,398.436 426.976,395.413C426.693,394.3 426.848,394.351 426.711,393.209C430.876,393.635 521.685,371.537 522.904,370.952Z" style="fill:url(#_Linear5);"/>
                    <path d="M572.446,343.083C591.968,338.549 601.452,335.067 606.765,359.438C616.654,404.8 618.551,406.985 610.23,414.185C604.864,418.829 597.484,417.987 588.489,421.491C588.182,421.028 587.455,420.963 587.147,420.5C586.56,419.615 587.706,419.339 584.804,407.437C584.376,405.684 583.182,400.787 579.845,385.436C579.567,384.156 579.379,382.857 579.096,381.578C571.007,345.034 569.71,344.411 571.517,343.11C571.768,342.929 572.195,343.264 572.446,343.083Z" style="fill:url(#_Linear6);"/>
                    <path d="M372.254,390.244C372.489,390.711 373.356,390.35 373.394,392.51C373.42,393.977 389.683,466.754 389.679,466.762C389.609,466.961 389.516,466.862 387.43,468.13C374.298,471.005 358.932,477.944 354.106,452.572C346.499,412.572 334.266,399.13 363.533,392.625C367.953,391.643 367.874,391.627 372.254,390.244Z" style="fill:url(#_Linear7);"/>
                </g>
            </g>
        </g>
    </g>
    <defs>
        <linearGradient id="_Linear1" x1="0" y1="0" x2="1" y2="0" gradientUnits="userSpaceOnUse" gradientTransform="matrix(41.918593,167.383963,-167.383963,41.918593,424.440065,533.725237)"><stop offset="0" style="stop-color:rgb(26,145,243);stop-opacity:1"/><stop offset="1" style="stop-color:rgb(8,89,156);stop-opacity:1"/></linearGradient>
        <linearGradient id="_Linear2" x1="0" y1="0" x2="1" y2="0" gradientUnits="userSpaceOnUse" gradientTransform="matrix(45.152216,160.292585,-160.292585,45.152216,595.704581,499.75772)"><stop offset="0" style="stop-color:rgb(254,108,47);stop-opacity:1"/><stop offset="1" style="stop-color:rgb(189,56,1);stop-opacity:1"/></linearGradient>
        <linearGradient id="_Linear3" x1="0" y1="0" x2="1" y2="0" gradientUnits="userSpaceOnUse" gradientTransform="matrix(35.755303,149.914392,-149.914392,35.755303,386.652786,348.17918)"><stop offset="0" style="stop-color:rgb(0,176,121);stop-opacity:1"/><stop offset="1" style="stop-color:rgb(0,128,89);stop-opacity:1"/></linearGradient>
        <linearGradient id="_Linear4" x1="0" y1="0" x2="1" y2="0" gradientUnits="userSpaceOnUse" gradientTransform="matrix(35.755303,149.914392,-149.914392,35.755303,386.652786,348.17918)"><stop offset="0" style="stop-color:rgb(0,176,121);stop-opacity:1"/><stop offset="1" style="stop-color:rgb(0,128,89);stop-opacity:1"/></linearGradient>
        <linearGradient id="_Linear5" x1="0" y1="0" x2="1" y2="0" gradientUnits="userSpaceOnUse" gradientTransform="matrix(13.011506,46.025055,-29.941994,8.464747,470.204703,383.01091)"><stop offset="0" style="stop-color:rgb(0,168,115);stop-opacity:1"/><stop offset="1" style="stop-color:rgb(0,131,91);stop-opacity:1"/></linearGradient>
        <linearGradient id="_Linear6" x1="0" y1="0" x2="1" y2="0" gradientUnits="userSpaceOnUse" gradientTransform="matrix(18.246709,77.730574,-77.730574,18.246709,359.315174,393.025386)"><stop offset="0" style="stop-color:rgb(0,178,122);stop-opacity:1"/><stop offset="1" style="stop-color:rgb(0,126,88);stop-opacity:1"/></linearGradient>
        <linearGradient id="_Linear7" x1="0" y1="0" x2="1" y2="0" gradientUnits="userSpaceOnUse" gradientTransform="matrix(18.246709,77.730574,-77.730574,18.246709,359.315174,393.025386)"><stop offset="0" style="stop-color:rgb(0,178,122);stop-opacity:1"/><stop offset="1" style="stop-color:rgb(0,126,88);stop-opacity:1"/></linearGradient>
    </defs>
</svg>
